<?xml version="1.0" encoding="UTF-8"?>
<svg xmlns="http://www.w3.org/2000/svg" xmlns:xlink="http://www.w3.org/1999/xlink" width="375pt" height="374.999991pt" viewBox="0 0 375 374.999991" version="1.2">
<defs>
<clipPath id="clip1">
  <path d="M 87.398438 108 L 253 108 L 253 273 L 87.398438 273 Z M 87.398438 108 "/>
</clipPath>
<clipPath id="clip2">
  <path d="M 180 102 L 268.898438 102 L 268.898438 273.417969 L 180 273.417969 Z M 180 102 "/>
</clipPath>
<clipPath id="clip3">
  <path d="M 150 133.195312 L 196 133.195312 L 196 241.945312 L 150 241.945312 Z M 150 133.195312 "/>
</clipPath>
</defs>
<g id="surface1">
<g clip-path="url(#clip1)" clip-rule="nonzero">
<path style=" stroke:none;fill-rule:nonzero;fill:rgb(16.859436%,16.079712%,16.079712%);fill-opacity:1;" d="M 170.800781 261.765625 C 131.265625 262.125 98.921875 230.394531 98.5625 190.917969 C 98.207031 151.429688 129.96875 119.132812 169.507812 118.773438 C 209.039062 118.417969 241.386719 150.136719 241.742188 189.621094 C 242.101562 229.101562 210.335938 261.410156 170.800781 261.765625 Z M 252.496094 189.527344 C 252.085938 144.105469 214.890625 107.613281 169.40625 108.027344 C 123.917969 108.4375 87.390625 145.589844 87.800781 191.015625 C 88.214844 236.433594 125.410156 272.925781 170.898438 272.515625 C 216.378906 272.101562 252.910156 234.945312 252.496094 189.527344 "/>
</g>
<path style=" stroke:none;fill-rule:nonzero;fill:rgb(16.859436%,16.079712%,16.079712%);fill-opacity:1;" d="M 160.074219 171.839844 C 160.085938 173.28125 160.523438 174.539062 161.347656 175.597656 C 162.195312 176.667969 163.652344 177.542969 165.738281 178.253906 L 165.621094 165.617188 C 163.53125 166.332031 162.085938 167.203125 161.265625 168.222656 C 160.457031 169.253906 160.0625 170.464844 160.074219 171.839844 "/>
<path style=" stroke:none;fill-rule:nonzero;fill:rgb(16.859436%,16.079712%,16.079712%);fill-opacity:1;" d="M 173.09375 198.152344 L 173.234375 213.910156 C 176.019531 213.253906 178.046875 212.21875 179.328125 210.769531 C 180.601562 209.347656 181.25 207.730469 181.230469 205.960938 C 181.21875 204.410156 180.65625 202.988281 179.550781 201.710938 C 178.4375 200.421875 176.289062 199.242188 173.09375 198.152344 "/>
<path style=" stroke:none;fill-rule:nonzero;fill:rgb(16.859436%,16.079712%,16.079712%);fill-opacity:1;" d="M 197.445312 213.101562 C 195.882812 216.085938 193.863281 218.597656 191.410156 220.617188 C 188.960938 222.628906 186.332031 224.105469 183.570312 225.039062 C 180.78125 225.957031 177.375 226.523438 173.351562 226.71875 L 173.4375 235.996094 L 166.261719 236.058594 L 166.175781 226.785156 C 161.367188 226.40625 157.445312 225.660156 154.4375 224.566406 C 151.421875 223.457031 148.820312 221.921875 146.625 219.945312 C 144.425781 217.964844 142.734375 215.835938 141.53125 213.527344 C 140.332031 211.242188 139.421875 208.464844 138.808594 205.1875 L 158.632812 202.699219 C 159.257812 205.933594 160.070312 208.277344 161.085938 209.699219 C 162.09375 211.132812 163.757812 212.394531 166.054688 213.484375 L 165.898438 196.136719 C 159.269531 194.363281 154.558594 192.820312 151.777344 191.503906 C 148.996094 190.183594 146.582031 188.046875 144.515625 185.101562 C 142.449219 182.160156 141.417969 178.558594 141.378906 174.300781 C 141.328125 168.476562 143.320312 163.585938 147.355469 159.640625 C 151.402344 155.675781 157.457031 153.453125 165.507812 152.960938 L 165.464844 148.09375 L 172.640625 148.03125 L 172.683594 152.898438 C 180.03125 153.289062 185.65625 154.976562 189.570312 157.945312 C 193.480469 160.914062 196.050781 165.023438 197.265625 170.25 L 179.019531 173.308594 C 178.078125 170.988281 177.234375 169.382812 176.488281 168.503906 C 175.738281 167.597656 174.519531 166.710938 172.800781 165.800781 L 172.929688 180 C 182.914062 182.566406 189.585938 185.308594 192.96875 188.222656 C 197.425781 192.152344 199.675781 197.160156 199.734375 203.238281 C 199.765625 206.808594 199 210.097656 197.445312 213.101562 Z M 169.519531 120.460938 C 130.917969 120.808594 99.90625 152.347656 100.257812 190.902344 C 100.605469 229.453125 132.183594 260.414062 170.785156 260.066406 C 209.386719 259.714844 240.398438 228.191406 240.050781 189.640625 C 239.703125 151.082031 208.121094 120.113281 169.519531 120.460938 "/>
<path style=" stroke:none;fill-rule:nonzero;fill:rgb(16.859436%,16.079712%,16.079712%);fill-opacity:1;" d="M 255.460938 151.472656 C 255.191406 150.9375 254.925781 150.390625 254.652344 149.863281 C 250.773438 149.195312 246.902344 148.640625 243.023438 148.164062 C 243.347656 148.71875 243.679688 149.261719 243.984375 149.828125 C 247.804688 150.292969 251.636719 150.839844 255.460938 151.472656 "/>
<path style=" stroke:none;fill-rule:nonzero;fill:rgb(16.859436%,16.079712%,16.079712%);fill-opacity:1;" d="M 234.90625 136.394531 C 235.390625 136.972656 235.839844 137.574219 236.300781 138.160156 C 240.429688 138.667969 244.574219 139.25 248.710938 140.019531 C 248.296875 139.433594 247.875 138.839844 247.445312 138.261719 C 243.269531 137.484375 239.089844 136.898438 234.90625 136.394531 "/>
<path style=" stroke:none;fill-rule:nonzero;fill:rgb(16.859436%,16.079712%,16.079712%);fill-opacity:1;" d="M 239.382812 142.351562 C 239.777344 142.917969 240.15625 143.503906 240.535156 144.082031 C 244.507812 144.589844 248.488281 145.160156 252.464844 145.871094 C 252.125 145.304688 251.785156 144.730469 251.433594 144.171875 C 247.417969 143.4375 243.402344 142.855469 239.382812 142.351562 "/>
<path style=" stroke:none;fill-rule:nonzero;fill:rgb(16.859436%,16.079712%,16.079712%);fill-opacity:1;" d="M 170.859375 105.679688 C 171.796875 105.683594 172.738281 105.683594 173.667969 105.722656 C 175.273438 105.011719 176.878906 104.335938 178.480469 103.71875 C 177.207031 103.738281 175.945312 103.777344 174.679688 103.851562 C 173.40625 104.410156 172.132812 105.058594 170.859375 105.679688 "/>
<path style=" stroke:none;fill-rule:nonzero;fill:rgb(16.859436%,16.079712%,16.079712%);fill-opacity:1;" d="M 181.152344 106.375 C 182.25 106.515625 183.328125 106.6875 184.410156 106.871094 C 187.246094 106.046875 190.089844 105.324219 192.925781 104.746094 C 191.496094 104.515625 190.042969 104.328125 188.582031 104.175781 C 186.105469 104.808594 183.632812 105.558594 181.152344 106.375 "/>
<path style=" stroke:none;fill-rule:nonzero;fill:rgb(16.859436%,16.079712%,16.079712%);fill-opacity:1;" d="M 162.308594 106.035156 C 163.078125 105.960938 163.847656 105.890625 164.617188 105.835938 C 165.242188 105.464844 165.859375 105.070312 166.484375 104.714844 C 165.5 104.867188 164.527344 105.03125 163.566406 105.210938 C 163.144531 105.480469 162.726562 105.765625 162.308594 106.035156 "/>
<path style=" stroke:none;fill-rule:nonzero;fill:rgb(16.859436%,16.079712%,16.079712%);fill-opacity:1;" d="M 229.335938 130.265625 C 229.921875 130.855469 230.484375 131.464844 231.0625 132.070312 C 235.378906 132.539062 239.695312 133.121094 244.007812 133.910156 C 243.484375 133.292969 242.949219 132.675781 242.414062 132.074219 C 238.050781 131.289062 233.691406 130.714844 229.335938 130.265625 "/>
<g clip-path="url(#clip2)" clip-rule="nonzero">
<path style=" stroke:none;fill-rule:nonzero;fill:rgb(16.859436%,16.079712%,16.079712%);fill-opacity:1;" d="M 182.070312 102.097656 C 181.378906 102.101562 180.699219 102.148438 180.015625 102.167969 C 214.960938 102.675781 244.746094 124.183594 257.546875 154.652344 C 253.816406 154.109375 250.078125 153.632812 246.339844 153.230469 C 246.601562 153.765625 246.84375 154.3125 247.09375 154.847656 C 250.808594 155.242188 254.507812 155.691406 258.214844 156.21875 C 258.707031 157.460938 259.226562 158.695312 259.667969 159.96875 C 256.035156 159.5 252.40625 159.105469 248.777344 158.753906 C 248.996094 159.296875 249.226562 159.824219 249.433594 160.363281 C 253.019531 160.699219 256.609375 161.0625 260.199219 161.5 C 260.59375 162.71875 261.019531 163.929688 261.363281 165.171875 C 257.832031 164.796875 254.304688 164.484375 250.773438 164.199219 C 250.941406 164.710938 251.082031 165.230469 251.242188 165.746094 C 254.746094 166.011719 258.25 166.304688 261.75 166.660156 C 262.050781 167.847656 262.339844 169.046875 262.589844 170.261719 C 259.15625 169.96875 255.730469 169.738281 252.289062 169.515625 C 252.425781 170.035156 252.539062 170.554688 252.667969 171.078125 C 256.066406 171.277344 259.464844 171.484375 262.871094 171.742188 C 263.085938 172.917969 263.289062 174.101562 263.460938 175.289062 C 260.121094 175.09375 256.777344 174.933594 253.433594 174.785156 C 253.523438 175.292969 253.632812 175.800781 253.722656 176.316406 C 257.03125 176.445312 260.351562 176.582031 263.660156 176.753906 C 263.808594 177.925781 263.9375 179.101562 264.035156 180.285156 C 260.769531 180.175781 257.519531 180.140625 254.253906 180.058594 C 254.308594 180.566406 254.363281 181.074219 254.417969 181.578125 C 257.667969 181.644531 260.910156 181.667969 264.15625 181.753906 C 264.238281 182.914062 264.285156 184.085938 264.316406 185.261719 C 261.117188 185.226562 257.921875 185.230469 254.726562 185.214844 C 254.753906 185.71875 254.757812 186.238281 254.78125 186.742188 C 257.972656 186.734375 261.171875 186.703125 264.371094 186.703125 C 264.371094 186.769531 264.371094 186.835938 264.371094 186.894531 C 264.382812 188.195312 264.367188 189.480469 264.320312 190.769531 C 261.160156 190.824219 258.007812 190.84375 254.855469 190.902344 C 254.847656 191.410156 254.839844 191.925781 254.828125 192.433594 C 257.960938 192.359375 261.097656 192.304688 264.234375 192.222656 C 264.179688 193.402344 264.097656 194.574219 263.984375 195.746094 C 260.875 195.875 257.765625 195.953125 254.65625 196.070312 C 254.621094 196.574219 254.597656 197.082031 254.554688 197.59375 C 257.648438 197.449219 260.738281 197.363281 263.832031 197.207031 C 263.695312 198.402344 263.539062 199.582031 263.355469 200.765625 C 260.289062 200.972656 257.210938 201.15625 254.144531 201.332031 C 254.074219 201.84375 254.015625 202.359375 253.9375 202.863281 C 257 202.667969 260.066406 202.472656 263.125 202.238281 C 262.921875 203.441406 262.683594 204.640625 262.429688 205.824219 C 259.390625 206.105469 256.347656 206.347656 253.304688 206.582031 C 253.203125 207.101562 253.074219 207.609375 252.960938 208.125 C 256.003906 207.871094 259.054688 207.621094 262.09375 207.316406 C 261.808594 208.546875 261.488281 209.761719 261.152344 210.96875 C 258.121094 211.316406 255.09375 211.609375 252.066406 211.898438 C 251.917969 212.421875 251.78125 212.945312 251.632812 213.464844 C 254.65625 213.160156 257.675781 212.855469 260.695312 212.484375 C 260.3125 213.738281 259.910156 214.984375 259.46875 216.210938 C 256.457031 216.625 253.449219 216.96875 250.4375 217.304688 C 250.257812 217.835938 250.085938 218.375 249.898438 218.902344 C 252.902344 218.554688 255.914062 218.195312 258.921875 217.765625 C 258.441406 219.050781 257.921875 220.316406 257.382812 221.570312 C 254.378906 222.039062 251.382812 222.429688 248.378906 222.808594 C 248.148438 223.359375 247.894531 223.902344 247.648438 224.453125 C 250.648438 224.070312 253.644531 223.664062 256.644531 223.179688 C 256.039062 224.507812 255.398438 225.816406 254.726562 227.101562 C 251.738281 227.605469 248.746094 228.046875 245.753906 228.449219 C 245.472656 229 245.195312 229.566406 244.902344 230.125 C 247.886719 229.710938 250.871094 229.265625 253.84375 228.753906 C 253.082031 230.140625 252.285156 231.5 251.441406 232.839844 C 248.472656 233.371094 245.496094 233.84375 242.523438 234.253906 C 242.167969 234.832031 241.808594 235.40625 241.441406 235.972656 C 244.421875 235.550781 247.394531 235.078125 250.375 234.539062 C 249.421875 235.992188 248.410156 237.398438 247.367188 238.789062 C 244.433594 239.324219 241.496094 239.789062 238.558594 240.195312 C 238.117188 240.796875 237.660156 241.363281 237.207031 241.949219 C 240.144531 241.554688 243.078125 241.101562 246.019531 240.570312 C 244.808594 242.09375 243.542969 243.578125 242.230469 245.015625 C 239.371094 245.523438 236.503906 245.929688 233.636719 246.289062 C 233.101562 246.894531 232.546875 247.480469 231.992188 248.070312 C 234.835938 247.730469 237.683594 247.339844 240.53125 246.859375 C 238.992188 248.453125 237.394531 249.996094 235.734375 251.476562 C 233.015625 251.882812 230.289062 252.210938 227.566406 252.488281 C 226.886719 253.109375 226.183594 253.710938 225.484375 254.320312 C 228.144531 254.089844 230.808594 253.796875 233.46875 253.414062 C 231.492188 255.050781 229.449219 256.605469 227.332031 258.0625 C 224.890625 258.320312 222.449219 258.523438 220 258.660156 C 219.1875 259.253906 218.363281 259.839844 217.523438 260.410156 C 219.820312 260.316406 222.121094 260.183594 224.417969 259.980469 C 221.871094 261.589844 219.238281 263.082031 216.515625 264.417969 C 215.644531 264.449219 214.769531 264.480469 213.898438 264.488281 C 212.914062 264.496094 211.9375 264.445312 210.960938 264.425781 C 209.988281 264.964844 209.003906 265.480469 208.003906 265.976562 C 209.613281 266.042969 211.226562 266.117188 212.839844 266.117188 C 209.675781 267.488281 206.410156 268.667969 203.070312 269.65625 C 202.144531 269.574219 201.226562 269.460938 200.304688 269.359375 C 199.234375 269.761719 198.152344 270.136719 197.066406 270.503906 C 197.667969 270.589844 198.261719 270.714844 198.855469 270.792969 C 196.207031 271.425781 193.507812 271.949219 190.765625 272.335938 C 189.203125 272.71875 187.625 273.058594 186.046875 273.367188 C 187.28125 273.273438 188.515625 273.167969 189.742188 273.027344 C 189.589844 272.992188 189.445312 272.941406 189.292969 272.910156 C 233.929688 269.585938 268.902344 232.191406 268.492188 186.859375 C 268.0625 139.617188 229.378906 101.667969 182.070312 102.097656 "/>
</g>
<path style=" stroke:none;fill-rule:nonzero;fill:rgb(16.859436%,16.079712%,16.079712%);fill-opacity:1;" d="M 192.617188 108.683594 C 193.757812 108.996094 194.882812 109.332031 196.003906 109.683594 C 199.882812 109.058594 203.761719 108.636719 207.652344 108.433594 C 206.28125 107.957031 204.886719 107.515625 203.492188 107.101562 C 199.863281 107.441406 196.242188 107.980469 192.617188 108.683594 "/>
<path style=" stroke:none;fill-rule:nonzero;fill:rgb(16.859436%,16.079712%,16.079712%);fill-opacity:1;" d="M 222.453125 124.140625 C 223.167969 124.71875 223.875 125.300781 224.570312 125.898438 C 229.058594 126.25 233.546875 126.789062 238.039062 127.535156 C 237.371094 126.890625 236.699219 126.261719 236.011719 125.636719 C 231.492188 124.917969 226.972656 124.441406 222.453125 124.140625 "/>
<path style=" stroke:none;fill-rule:nonzero;fill:rgb(16.859436%,16.079712%,16.079712%);fill-opacity:1;" d="M 214.078125 117.910156 C 214.988281 118.46875 215.894531 119.023438 216.789062 119.617188 C 221.324219 119.710938 225.859375 119.960938 230.398438 120.507812 C 229.523438 119.863281 228.640625 119.226562 227.742188 118.617188 C 223.183594 118.136719 218.628906 117.921875 214.078125 117.910156 "/>
<path style=" stroke:none;fill-rule:nonzero;fill:rgb(16.859436%,16.079712%,16.079712%);fill-opacity:1;" d="M 212.519531 112.269531 C 209.675781 112.292969 206.832031 112.460938 203.984375 112.695312 C 205.035156 113.148438 206.082031 113.628906 207.105469 114.125 C 208.917969 114.023438 210.722656 113.929688 212.53125 113.914062 C 215.152344 113.886719 217.769531 113.949219 220.386719 114.09375 C 219.257812 113.472656 218.101562 112.878906 216.941406 112.308594 C 215.460938 112.269531 213.988281 112.253906 212.519531 112.269531 "/>
<path style=" stroke:none;fill-rule:nonzero;fill:rgb(16.859436%,16.079712%,16.079712%);fill-opacity:1;" d="M 121.488281 143.679688 L 217.703125 143.679688 L 217.703125 239.894531 L 121.488281 239.894531 Z M 121.488281 143.679688 "/>
<path style=" stroke:none;fill-rule:nonzero;fill:rgb(100%,100%,100%);fill-opacity:1;" d="M 194.519531 176.828125 C 200.277344 174.851562 197.371094 157.46875 174.484375 157.46875 C 143.945312 157.46875 138.792969 219.25 174.484375 219.25 C 192.648438 219.25 198.988281 199.078125 198.988281 195.433594 L 197.269531 194.726562 C 197.269531 194.726562 192.464844 209.707031 178.636719 209.707031 C 155.996094 209.707031 154.667969 161.816406 174.941406 161.816406 C 179.449219 161.816406 184.722656 163.53125 184.945312 171.539062 C 185.125 178.019531 191.933594 177.71875 194.519531 176.828125 "/>
<g clip-path="url(#clip3)" clip-rule="nonzero">
<path style=" stroke:none;fill-rule:nonzero;fill:rgb(100%,100%,100%);fill-opacity:1;" d="M 190.003906 133.238281 L 150.402344 241.945312 L 155.433594 241.945312 L 195.054688 133.195312 C 193.109375 133.210938 191.296875 133.226562 190.003906 133.238281 "/>
</g>
</g>
</svg>
